<?xml version="1.0" encoding="UTF-8"?>
<svg enable-background="new 0 0 136.743 136.704" viewBox="0 0 136.743 136.704" xmlns="http://www.w3.org/2000/svg">
 <defs>
  <radialGradient id="a" cx="68.356" cy="68.329" r="63.55" gradientUnits="userSpaceOnUse">
   <stop stop-color="#d4e4f7" offset="0"/>
   <stop stop-color="#7fb5f7" offset="1"/>
  </radialGradient>
 </defs>
 <path d="m136.74 68.33c0 34.835-27.326 64.902-62.045 68.094-34.731 3.192-67.231-21.229-73.584-55.577-6.353-34.339 15.08-68.931 48.735-78.37s70.043 8.891 82.458 41.57c2.941 7.74 4.436 16.003 4.436 24.283" fill="#5471af"/>
 <path d="m131.91 68.33c0 34.631-28.917 63.549-63.549 63.549s-63.55-28.918-63.55-63.549 28.917-63.55 63.55-63.55 63.549 28.916 63.549 63.55" fill="url(#a)"/>
 <path d="m125.78 43.627c5.136 29.927-12.74 59.992-41.484 69.786-30.486 10.388-64.792-4.966-77.541-34.495 6.126 35.736 42.872 59.229 77.882 49.782 36.15-9.757 56.043-50.603 41.143-85.073" fill="#68a0f2"/>
 <path d="m108.049,40.118c-8.789,1.819-18.908-10.632-26.528-13.799-14.237-5.919-32.021-3.171-44.919,4.889-13.643,8.523-23.347,24.896-24.839,40.968-.005.046-.005.056-.002.025 1.008-9.733.328-18.882 4.034-28.29 6.141-15.595 19.423-27.805 35.435-32.71 16.556-5.072 34.661-1.845 48.923,7.82 4.404,2.986 21.358,18.311 7.896,21.097" fill="#b3e7fc"/>
 <path d="m52.656,37.577v53.022c0,5.399-2.216,15.433 5.681,15.813 6.644.323 14.157-8.493 18.84-12.189 7.759-6.117 15.516-12.235 23.275-18.354 7.476-5.896 1.938-10.271-3.596-14.651l-25.002-19.799-8.049-6.374c-2.697-2.138-11.149-2.474-11.149,2.532" fill="#fff"/>
 <path d="m54.657,33.564c-5.175,2.503-2.903,14.432-2.903,18.904v33.111c0,4.376-2.163,16.078 1.398,19.72 6.829,6.98 17.41-4.71 22.374-8.624 8.074-6.369 16.148-12.736 24.224-19.104 1.999-1.577 4.77-3.234 5.614-5.767 1.409-4.229-2.137-6.694-4.95-8.923l-23.795-18.84c-5.583-4.422-13.931-14.359-21.962-10.477m.962,71.296c-4.182-2.018-2.061-14.494-2.061-17.969v-33.113c0-3.473-2.082-14.782.62-17.698 5.79-6.25 16.196,5.314 20.227,8.507l23.503,18.61c1.675,1.326 4.416,2.885 5.466,4.862 1.966,3.713-2.338,6.201-4.742,8.098l-23.131,18.24c-4.494,3.544-13.235,13.68-19.882,10.463" fill="#5471af"/>
</svg>
