<?xml version="1.0" encoding="UTF-8"?>
<svg viewBox="0 0 48 48" xmlns="http://www.w3.org/2000/svg" xmlns:xlink="http://www.w3.org/1999/xlink">
 <defs>
  <linearGradient id="h" x2="0" y1="13.183" y2="16.19" gradientUnits="userSpaceOnUse">
   <stop stop-color="#f9f9f9" offset="0"/>
   <stop stop-color="#c9c9c9" offset="1"/>
  </linearGradient>
  <linearGradient id="a">
   <stop offset="0"/>
   <stop stop-opacity="0" offset="1"/>
  </linearGradient>
  <linearGradient id="g" x2="0" y1="39" y2="48" gradientUnits="userSpaceOnUse">
   <stop stop-opacity="0" offset="0"/>
   <stop offset=".5"/>
   <stop stop-opacity="0" offset="1"/>
  </linearGradient>
  <linearGradient id="i" x1="28.688" x2="11.575" y1="45" y2="15.83" gradientUnits="userSpaceOnUse">
   <stop stop-color="#6f0000" offset="0"/>
   <stop stop-color="#c00" offset="1"/>
  </linearGradient>
  <linearGradient id="j" x1="22.935" x2="22.809" y1="49.629" y2="36.658" gradientTransform="matrix(1.1447 0 0 .99775 -3.4661 1.0988)" gradientUnits="userSpaceOnUse">
   <stop stop-color="#0a0a0a" stop-opacity=".498" offset="0"/>
   <stop stop-color="#0a0a0a" stop-opacity="0" offset="1"/>
  </linearGradient>
  <linearGradient id="k" x1="11.566" x2="15.215" y1="22.292" y2="33.955" gradientUnits="userSpaceOnUse">
   <stop stop-color="#fff" stop-opacity=".27451" offset="0"/>
   <stop stop-color="#fff" stop-opacity=".07843" offset="1"/>
  </linearGradient>
  <radialGradient id="d" cx="3" cy="5.0172" r="21" gradientTransform="matrix(-1.2749e-8 1.7143 -2.1593 -1.46e-8 12.809 2.857)" gradientUnits="userSpaceOnUse">
   <stop stop-color="#bdbdbd" offset="0"/>
   <stop stop-color="#d0d0d0" offset="1"/>
  </radialGradient>
  <radialGradient id="e" cx="63.969" cy="14.113" r="23.097" gradientTransform="matrix(1.5647 -9.5143e-8 6.1772e-8 1.0159 -86.213 8.1461)" gradientUnits="userSpaceOnUse">
   <stop stop-color="#ef2929" offset="0"/>
   <stop stop-color="#c00" offset=".5"/>
   <stop stop-color="#a40000" offset="1"/>
  </radialGradient>
  <radialGradient id="f" cx="7.2646" cy="8.3021" r="20.98" gradientTransform="matrix(0 1.208 -1.6272 0 26.372 8.2665)" gradientUnits="userSpaceOnUse">
   <stop stop-color="#fff" stop-opacity=".4" offset="0"/>
   <stop stop-color="#fff" stop-opacity="0" offset="1"/>
  </radialGradient>
  <radialGradient id="b" cx="3.9019" cy="43.447" r="-3.7638" gradientUnits="userSpaceOnUse" xlink:href="#a"/>
  <radialGradient id="c" cx="44.098" cy="43.447" r="3.7638" gradientUnits="userSpaceOnUse" xlink:href="#a"/>
 </defs>
 <path d="m3.5062 8.5c-0.69027 0.00767-1.0004 0.34215-1.0004 1 0 5.5144 0.02628 9.7396-0.00581 14.75 1.4355 0 43-3.6997 43-5.2923v-6.4515c0-0.65785-0.5542-1.0077-1.2445-1h-20.256c-2.0475 0-3.4989-3.0066-5-3.0066h-15.494z" fill="url(#h)" stroke="url(#d)" stroke-linecap="round" stroke-linejoin="round"/>
 <g transform="matrix(.95833 0 0 .66667 1 15)" opacity=".4">
  <path d="m4 39h40v9h-40z" fill="url(#g)"/>
  <path d="m44 39v8.9995c1.6546 0.01694 4-2.0163 4-4.5003s-1.8464-4.4992-4-4.4992z" fill="url(#c)"/>
  <path d="m4 39v8.9995c-1.6546 0.01694-4-2.0163-4-4.5003s1.8464-4.4992 4-4.4992z" fill="url(#b)"/>
 </g>
 <path d="m2.1629 16.525c-1.0727 0.12369-0.49977 1.4021-0.5853 2.121 0.39253 8.4701 0.78893 16.769 1.179 25.24 0.34184 0.96569 1.5944 0.47116 2.3881 0.59375h39.581c1.0894-0.10665 0.63646-1.4077 0.7897-2.1523 0.39254-8.4701 0.78894-16.769 1.179-25.24-0.25117-0.95429-1.5195-0.42401-2.2631-0.5625h-42.268z" fill="url(#e)" stroke="url(#i)" stroke-linecap="round" stroke-linejoin="round"/>
 <path d="m2.0582 16.065 43.896 4e-4c0.63416 0 1.0452 0.44461 1.0452 0.99737l-1.2442 26.939c0 0.55276-0.51053 0.99775-1.1447 0.99775h-41.209c-0.63416 0-1.1447-0.445-1.1447-0.99775l-1.2442-26.939c0-0.55276 0.41099-0.99775 1.0452-0.99775z" fill="url(#j)" opacity=".4"/>
 <path d="m46.5 17.5h-44l1.1562 24.531" fill="none" stroke="url(#f)" stroke-linecap="round" stroke-linejoin="round"/>
 <path d="m45.75 16c-14.55 0.07335-29.105-0.02115-43.656 0-1.8068 0.41112-0.83441 2.4666-0.97243 3.7715 0.22203 4.1634 0.32307 8.3449 0.62046 12.497 15.001-2.3628 29.927-4.6072 44.664-7.0497 0.78099-2.5866 0.78738-5.6706 0.65736-8.4292-0.22914-0.50456-0.78701-0.80084-1.3136-0.78953z" fill="url(#k)"/>
 <path d="m6,10h11a1,1 0 0,1 1,1 1,1 0 0,1 -1,1h-11a1,1 0 0,1 -1-1 1,1 0 0,1 1-1" display="block" fill="#ef2929" opacity=".6"/>
</svg>
