<?xml version="1.0" encoding="UTF-8" standalone="no"?>
<svg
   xmlns:dc="http://purl.org/dc/elements/1.1/"
   xmlns:cc="http://creativecommons.org/ns#"
   xmlns:rdf="http://www.w3.org/1999/02/22-rdf-syntax-ns#"
   xmlns:svg="http://www.w3.org/2000/svg"
   xmlns="http://www.w3.org/2000/svg"
   xmlns:xlink="http://www.w3.org/1999/xlink"
   xmlns:sodipodi="http://sodipodi.sourceforge.net/DTD/sodipodi-0.dtd"
   xmlns:inkscape="http://www.inkscape.org/namespaces/inkscape"
   viewBox="0 0 16 16"
   version="1.1"
   id="svg3957"
   sodipodi:docname="server.svg"
   inkscape:version="0.92.4 (5da689c313, 2019-01-14)">
  <metadata
     id="metadata3961">
    <rdf:RDF>
      <cc:Work
         rdf:about="">
        <dc:format>image/svg+xml</dc:format>
        <dc:type
           rdf:resource="http://purl.org/dc/dcmitype/StillImage" />
      </cc:Work>
    </rdf:RDF>
  </metadata>
  <sodipodi:namedview
     pagecolor="#ffffff"
     bordercolor="#666666"
     borderopacity="1"
     objecttolerance="10"
     gridtolerance="10"
     guidetolerance="10"
     inkscape:pageopacity="0"
     inkscape:pageshadow="2"
     inkscape:window-width="1920"
     inkscape:window-height="1135"
     id="namedview3959"
     showgrid="false"
     inkscape:zoom="20.727068"
     inkscape:cx="34.149469"
     inkscape:cy="15.86127"
     inkscape:window-x="3840"
     inkscape:window-y="0"
     inkscape:window-maximized="1"
     inkscape:current-layer="svg3957" />
  <defs
     id="defs3934">
    <style
       id="style3932">.cls-1,.cls-3{fill:#f2f2f2;}.cls-2{fill:#aaa;}.cls-3{stroke:#aaa;}.cls-3,.cls-5{stroke-miterlimit:1;stroke-width:0.75px;}.cls-4{fill:#7b7b97;}.cls-5{fill:#def4fd;stroke:#7b7b97;}</style>
  </defs>
  <title
     id="title3936">server</title>
  <g
     id="_3"
     data-name="3">
    <rect
       class="cls-1"
       x="3.08"
       y="2.6"
       width="9.85"
       height="3.1"
       rx="1.13"
       ry="1.13"
       id="rect3938" />
    <path
       class="cls-2"
       d="M11.8,3a.75.75,0,0,1,.75.75v.85a.75.75,0,0,1-.75.75H4.2a.75.75,0,0,1-.75-.75V3.73A.75.75,0,0,1,4.2,3h7.6m0-.75H4.2a1.5,1.5,0,0,0-1.5,1.5v.85a1.5,1.5,0,0,0,1.5,1.5h7.6a1.5,1.5,0,0,0,1.5-1.5V3.73a1.5,1.5,0,0,0-1.5-1.5Z"
       id="path3940" />
    <line
       class="cls-3"
       x1="6.37"
       y1="4.15"
       x2="4.27"
       y2="4.15"
       id="line3942" />
    <path
       class="cls-1"
       d="M4.2,6.45h7.6a1.13,1.13,0,0,1,1.13,1.13v.85A1.12,1.12,0,0,1,11.8,9.55H4.2A1.12,1.12,0,0,1,3.08,8.42V7.58A1.13,1.13,0,0,1,4.2,6.45Z"
       id="path3944" />
    <path
       class="cls-4"
       d="M11.8,6.82a.75.75,0,0,1,.75.75v.85a.75.75,0,0,1-.75.75H4.2a.75.75,0,0,1-.75-.75V7.57a.75.75,0,0,1,.75-.75h7.6m0-.75H4.2a1.5,1.5,0,0,0-1.5,1.5v.85a1.5,1.5,0,0,0,1.5,1.5h7.6a1.5,1.5,0,0,0,1.5-1.5V7.57a1.5,1.5,0,0,0-1.5-1.5Z"
       id="path3946" />
    <line
       class="cls-5"
       x1="6.37"
       y1="8"
       x2="4.27"
       y2="8"
       id="line3948" />
    <path
       class="cls-1"
       d="M4.2,10.3h7.6a1.12,1.12,0,0,1,1.12,1.12v.85A1.12,1.12,0,0,1,11.8,13.4H4.2a1.13,1.13,0,0,1-1.13-1.13v-.85A1.12,1.12,0,0,1,4.2,10.3Z"
       id="path3950" />
    <path
       class="cls-2"
       d="M11.8,10.68a.75.75,0,0,1,.75.75v.85a.75.75,0,0,1-.75.75H4.2a.75.75,0,0,1-.75-.75v-.85a.75.75,0,0,1,.75-.75h7.6m0-.75H4.2a1.5,1.5,0,0,0-1.5,1.5v.85a1.5,1.5,0,0,0,1.5,1.5h7.6a1.5,1.5,0,0,0,1.5-1.5v-.85a1.5,1.5,0,0,0-1.5-1.5Z"
       id="path3952" />
    <line
       class="cls-3"
       x1="6.37"
       y1="11.85"
       x2="4.27"
       y2="11.85"
       id="line3954" />
  </g>
  <g
     transform="matrix(0.0537099,0,0,0.05622765,-10.954031,-14.825518)"
     id="g4019">
    <path
       style="fill:#ff0000;fill-rule:evenodd;stroke:#ff0000;stroke-width:32"
       inkscape:connector-curvature="0"
       id="a"
       d="m 371.57,418.27 120.4,120.4" />
    <use
       y="0"
       x="0"
       style="fill:#ff0000;stroke:#ff0000"
       transform="matrix(-1,0,0,1,863.55,0)"
       width="744.09448"
       height="1052.3622"
       xlink:href="#a"
       id="use4017" />
  </g>
</svg>
